# xmcd
#
# Track frame offsets: 
#        150
#        18530
#        33540
#        51522
#        63352
#        81037
#        98180
#        118547
#        130287
#        144485
#        159187
#        198187
#
# Disc length: 2757 seconds
#
# Revision: 2
# Processed by: cddbd v1.5.2PL0 Copyright (c) Steve Scherf et al.
# Submitted via: ExactAudioCopy v0.99pb3
#
DISCID=9f0ac30c
DTITLE=Michelle Tumes - Centre Of My Universe
DYEAR=2000
DGENRE=Easy Listening
TTITLE0=Deep Love
TTITLE1=Heaven's Heart
TTITLE2=Lovely
TTITLE3=Do Ya
TTITLE4=Immortal
TTITLE5=Missing You
TTITLE6=With The Angels
TTITLE7=Chant
TTITLE8=Christe Eleison
TTITLE9=I Wish For Peace
TTITLE10=Interview With Michelle
TTITLE11=Hold On To Jesus
EXTD=
EXTT0=
EXTT1=
EXTT2=
EXTT3=
EXTT4=
EXTT5=
EXTT6=
EXTT7=
EXTT8=
EXTT9=
EXTT10=
EXTT11=
PLAYORDER=
